<svg width="88" height="37" viewBox="0 0 88 37" fill="none" xmlns="http://www.w3.org/2000/svg">
<path d="M1.0639 25.982C0.658607 25.982 0 25.8795 0 24.957C0 24.1883 0.405297 23.9321 1.0639 23.9321H12.3109C13.0708 23.9321 13.5774 24.3421 13.5774 25.0595C13.5774 25.7257 12.3615 27.4169 11.6523 28.3393C10.0818 30.3892 9.82844 30.3892 9.52447 30.3892C8.96719 30.3892 8.4099 29.8767 8.4099 29.3642C8.4099 29.0568 8.46057 28.9543 9.11917 28.2881C9.52447 27.8269 10.5884 26.4944 10.5884 26.187C10.5884 26.0332 10.4364 26.0332 10.1324 26.0332H1.0639V25.982ZM1.82383 35.4626C1.82383 35.0014 2.02648 34.8476 2.68509 34.3352C5.11687 32.4903 5.26886 30.0817 5.42084 27.8269C5.4715 27.2631 5.62349 26.8019 6.48475 26.8019C7.59931 26.8019 7.59931 27.5194 7.59931 28.1343C7.59931 29.723 7.29534 32.644 5.52217 34.7451C4.91422 35.4626 3.69833 36.5388 2.9384 36.5388C2.27979 36.59 1.82383 36.0263 1.82383 35.4626Z" fill="#FF41BE"/>
<path d="M15.7054 26.0332C15.5027 26.0332 14.6921 26.0332 14.6921 25.0083C14.6921 23.9834 15.5027 23.9834 15.7054 23.9834H25.4325C26.4457 23.9834 27.1043 24.2909 27.1043 25.5208C27.1043 26.7507 26.5471 30.2867 23.71 33.3615C22.1395 35.0526 19.809 36.4363 19.0491 36.4363C18.3398 36.4363 17.9852 35.7701 17.9852 35.3089C17.9852 34.7452 18.3398 34.5914 19.2011 34.1814C19.657 33.9765 22.1395 32.6441 23.71 29.8767C24.6219 28.2881 24.8752 26.8019 24.8752 26.392C24.8752 25.982 24.6219 25.982 24.4193 25.982H15.7054V26.0332Z" fill="#FF41BE"/>
<path d="M34.1968 36.1288C34.1968 36.7438 33.8422 37 33.2342 37C32.6263 37 32.2716 36.7438 32.2716 36.1288V30.6455C30.4478 31.6191 28.624 32.3366 28.2187 32.3366C27.6614 32.3366 27.3574 31.7729 27.3574 31.3117C27.3574 30.7479 27.6107 30.6967 28.472 30.338C31.0558 29.4155 33.4369 28.0319 35.514 26.2382C36.4259 25.4696 36.5273 25.4183 36.8312 25.4183C37.3378 25.4183 37.7938 25.8283 37.7938 26.392C37.7938 26.6482 37.6925 26.8532 37.3885 27.1094C37.0845 27.3657 35.8686 28.4419 34.1968 29.518V36.1288Z" fill="#FF41BE"/>
<path d="M41.5936 30.9016C41.5936 31.3629 41.4416 31.8753 40.5297 31.8753C39.8205 31.8753 39.4658 31.6191 39.4658 30.9016V24.0858C39.4658 23.6759 39.5671 23.1122 40.5297 23.1122C41.1883 23.1122 41.5936 23.3684 41.5936 24.0858V30.9016ZM47.2678 23.8296C47.2678 23.4709 47.3691 22.8559 48.3317 22.8559C49.041 22.8559 49.3956 23.1122 49.3956 23.8296V28.1856C49.3956 30.4917 49.1929 32.9003 47.2678 34.6939C46.0519 35.7701 44.1774 36.6925 43.5188 36.6925C42.7589 36.6925 42.4549 35.975 42.4549 35.5138C42.4549 35.0014 42.6069 34.8989 43.6201 34.4889C46.5078 33.2077 47.2678 31.2091 47.2678 28.7493V23.8296Z" fill="#FF41BE"/>
<path d="M63.4796 33.2078C63.7329 33.2078 64.5435 33.2078 64.5435 34.2327C64.5435 35.2576 63.7329 35.2576 63.4796 35.2576H51.8273C51.574 35.2576 50.7634 35.2576 50.7634 34.2327C50.7634 33.2078 51.574 33.2078 51.8273 33.2078H56.5896V26.4432H52.8406C52.5873 26.4432 51.7767 26.4432 51.7767 25.4183C51.7767 24.3421 52.5873 24.3421 52.8406 24.3421H62.4157C62.669 24.3421 63.4796 24.3421 63.4796 25.367C63.4796 26.392 62.669 26.392 62.4157 26.392H58.6667V33.1565H63.4796V33.2078Z" fill="#FF41BE"/>
<path d="M73.0548 35.9239C73.0548 36.2314 73.0041 36.9488 71.9909 36.9488C71.231 36.9488 70.927 36.5901 70.927 35.9239V29.0056C69.6098 29.7231 66.6207 31.1067 65.8608 31.1067C65.2528 31.1067 64.7969 30.543 64.7969 29.9281C64.7969 29.3131 65.1008 29.2106 66.0634 28.8519C69.0525 27.6732 71.9909 26.1871 75.0306 23.6247C75.8919 22.9073 75.9932 22.8048 76.2972 22.8048C76.9051 22.8048 77.4624 23.3172 77.4624 23.881C77.4624 24.2397 77.2597 24.5472 76.6518 25.0084C74.9293 26.4945 73.7641 27.212 73.0041 27.7244V35.9239H73.0548Z" fill="#FF41BE"/>
<path d="M81.2618 35.8726C81.2618 36.18 81.2618 36.9487 80.1979 36.9487C79.134 36.9487 79.134 36.2313 79.134 35.8726V23.6246C79.134 23.3172 79.134 22.5485 80.1979 22.5485C81.2618 22.5485 81.2618 23.2659 81.2618 23.6246V27.1094C83.1363 27.9294 85.0108 28.8518 86.784 29.9792C87.6959 30.5429 87.9999 30.7992 87.9999 31.3116C87.9999 31.8753 87.5946 32.5415 86.936 32.5415C86.5814 32.5415 86.48 32.439 85.5175 31.8241C83.6936 30.5942 81.7685 29.723 81.2618 29.518V35.8726Z" fill="#FF41BE"/>
<path d="M56.6401 17.68H14.2866L17.681 21.0623L56.6401 17.68Z" fill="#FF41BE"/>
<path d="M18.2385 3.84354V4.35601C17.4279 3.84354 16.7186 3.58731 15.756 3.58731C12.767 3.58731 10.5378 6.30338 10.5378 9.68565C10.5378 13.0679 12.8176 15.784 15.756 15.784C16.7186 15.784 17.4279 15.4765 18.2385 14.964V15.4765H20.8222V3.84354H18.2385ZM15.756 12.9654C14.2868 12.9654 13.2229 11.5305 13.2229 9.68565C13.2229 7.84077 14.2868 6.40587 15.756 6.40587C17.2252 6.40587 18.2385 7.84077 18.2385 9.68565C18.2385 11.5305 17.2252 12.9654 15.756 12.9654Z" fill="#FF41BE"/>
<path d="M39.1112 3.84352V10.6593C39.1112 11.9405 38.25 13.0167 36.9834 13.0167C35.7169 13.0167 34.8556 11.9405 34.8556 10.6593V3.84352H32.2212V10.6593C32.2212 13.4779 34.0957 15.7327 36.8821 15.7327C38.1487 15.7327 39.1112 15.0153 39.1112 15.0153V15.4252H41.7457V3.84352H39.1112Z" fill="#FF41BE"/>
<path d="M63.429 15.4765V8.66072C63.429 7.37956 64.2902 6.30338 65.5568 6.30338C66.8233 6.30338 67.6846 7.37956 67.6846 8.66072V15.4765H70.2684V8.66072C70.2684 5.84216 68.3939 3.58731 65.6075 3.58731C64.3409 3.58731 63.3783 4.30476 63.3783 4.30476V3.84354H60.7439V15.4765H63.429Z" fill="#FF41BE"/>
<path d="M3.04044 15.4252V10.9668H4.9656L8.3093 15.4765H11.7037L7.65069 10.0444C8.91724 9.12192 9.72783 7.63577 9.72783 5.94463C9.72783 3.17732 7.4987 0.92247 4.76295 0.92247H0.304688V15.4252H3.04044ZM3.04044 3.74103H4.81361C6.0295 3.74103 7.04274 4.76596 7.04274 5.99588C7.04274 7.2258 6.0295 8.25073 4.81361 8.25073H3.04044V3.74103Z" fill="#FF41BE"/>
<path d="M48.7369 12.7605C48.4836 12.9142 48.2303 13.068 47.8757 13.068C47.4704 13.068 46.6598 12.7605 46.6598 11.633V6.66213H48.8889V3.84357H46.6598V0.922516H44.0253V3.84357H42.6575V6.61088H44.0253V11.633C44.0253 14.2466 45.9505 15.784 47.9263 15.784C48.6356 15.784 49.6488 15.5278 50.4594 15.0666L48.7369 12.7605Z" fill="#FF41BE"/>
<path d="M27.3068 9.32687L31.7651 3.84349H28.1174L24.9763 7.89197V0H22.2913V15.4765H24.9763V10.7105L28.8267 15.4765H32.525L27.3068 9.32687Z" fill="#FF41BE"/>
<path d="M54.7657 3.58731C51.726 3.58731 49.5981 6.25213 49.5981 9.68565C49.5981 13.2729 52.3339 15.784 55.019 15.784C56.3869 15.784 58.16 15.3228 59.6292 13.1704L57.3494 11.838C55.5763 14.5028 52.5872 13.1704 52.2326 10.5056H59.7306C60.4398 6.30338 57.7547 3.58731 54.7657 3.58731ZM57.0455 8.14825H52.3339C52.8912 5.43219 56.5388 5.27845 57.0455 8.14825Z" fill="#FF41BE"/>
</svg>
